<?xml version="1.0" encoding="UTF-8"?>
<svg width="141px" height="73px" viewBox="0 0 141 73" version="1.1" xmlns="http://www.w3.org/2000/svg" xmlns:xlink="http://www.w3.org/1999/xlink">
    <title>CNP</title>
    <defs>
        <linearGradient x1="50%" y1="0%" x2="50%" y2="100%" id="svg-cnp-logo">
            <stop stop-color="#F2BC52" offset="0%"></stop>
            <stop stop-color="#8E6200" offset="100%"></stop>
        </linearGradient>
    </defs>
    <g id="cnp-logo-area" stroke="none" stroke-width="1" fill="none" fill-rule="evenodd">
        <g id="cnp-logo-graphic" fill="url(#svg-cnp-logo)">
            <path d="M36.3755318,63.2727824 C36.3733378,63.602498 36.1012764,63.8708938 35.770951,63.8614038 C21.0228356,63.4399519 9.14184719,51.3519222 9.14184719,36.4998783 C9.14184719,21.7368942 20.8804665,9.70531765 35.505228,9.14686951 C35.8194638,9.13494622 36.0798236,9.39044537 36.0798236,9.70434432 L36.0798236,10.2883424 C36.0798236,10.6540712 35.7941104,10.9606701 35.4279489,10.9769734 C22.0847525,11.5804381 10.9702166,22.7146043 10.9702166,36.4998783 C10.9702166,49.9048237 22.4021575,61.6234746 35.8350658,62.0366532 C36.1390627,62.0458998 36.3818702,62.2909357 36.3799199,62.5946147 L36.3755318,63.2727824 Z M45.7163056,1.29720568 L45.7163056,53.7402309 C45.7163056,54.2989223 45.2626262,54.7515208 44.7031452,54.7515208 L36.9806002,54.7515208 L36.5342343,54.7488442 C26.5540188,54.7308376 18.2836944,46.5677614 18.2836944,36.4998783 C18.2836944,26.4205586 26.5723025,18.2499392 36.5673887,18.2499392 L42.6100278,18.2499392 C42.9396219,18.2499392 43.2065638,17.9830034 43.2065638,17.6542612 L43.2065638,0.52097493 C43.2065638,0.233112556 42.9730201,0 42.6846253,0 L36.3097105,0 L36.3065414,0.00316332279 C16.1935024,0.143322856 0,16.4283519 0,36.4998783 C0,56.6534078 16.3258764,72.9917267 36.5532494,72.9995133 L36.5537369,73 L37.0213119,73 L48.7460357,73 L48.7460357,72.9659334 L62.6182403,72.9659334 C63.3812798,72.9659334 64,72.3485988 64,71.586968 L64,37.2332826 C64,37.1773161 63.986592,37.1220796 63.9612386,37.0721964 L45.7163056,1.29720568 Z" id="fill-1"></path>
            <path d="M114.659777,46.1085328 C114.130356,46.1441375 113.683742,45.7151627 113.683742,45.1833026 C113.683742,44.698097 114.05784,44.3017802 114.540468,44.2617557 C121.85902,43.6530387 129.975501,37.0973603 129.975501,27.7377532 C129.975501,18.3521179 122.283096,11.7858809 114.542673,11.2088398 C114.059555,11.172744 113.683742,10.7751995 113.683742,10.2895028 C113.683742,9.75911602 114.129131,9.33161449 114.657082,9.36672805 C124.147706,10.0014733 131.812918,17.9813382 131.812918,27.7377532 C131.812918,37.493186 124.148931,45.4725599 114.659777,46.1085328 M104.374165,0 L103.726169,0 L87.1940757,0 C86.5345657,0 86,0.535788828 86,1.19680786 L86,35.5354205 C86,35.724248 86.044343,35.9103745 86.1298441,36.0783303 L104.374165,72 L104.374165,19.523143 C104.374165,18.911725 104.868552,18.4162063 105.478575,18.4162063 L113.438753,18.4162063 C113.786882,18.4162063 114.132071,18.437078 114.472606,18.4773481 C118.926013,19.0067526 122.625835,22.8999386 122.625835,27.6243094 C122.625835,32.7098834 118.33853,36.8324125 113.438753,36.8324125 L107.941693,36.8324125 C107.431626,36.8324125 107.018085,37.2468999 107.018085,37.7583794 L107.018085,54.4729282 C107.018085,54.9014119 107.364499,55.2486188 107.791759,55.2486188 L113.479666,55.2486188 C128.650111,55.2255371 141,42.8667894 141,27.6243094 C141,12.4090853 128.694699,0.0682627379 113.561982,0.0014732965 L104.374165,0 Z" id="fill-2"></path>
            <path d="M103,73 L66.5383691,2.12746333 C65.866657,0.82198 64.5124226,0 63.0331328,0 L47,0 L83.8250041,71.5789333 C84.2736311,72.45104 85.1782557,73 86.1664144,73 L103,73 Z" id="fill-3"></path>
        </g>
    </g>
</svg>